<!-- Generated by IcoMoon.io -->
<svg version="1.1" xmlns="http://www.w3.org/2000/svg" width="28" height="28" viewBox="0 0 28 28">
<title>australia</title>
<path fill="#0052b4" d="M28 14c0 7.732-6.268 14-14 14s-14-6.268-14-14c0 0.003 14-13.998 14-14 7.732 0 14 6.268 14 14z"></path>
<path fill="#f0f0f0" d="M13.963 14h0.037c0-0.013 0-0.025 0-0.037-0.012 0.012-0.025 0.025-0.037 0.037z"></path>
<path fill="#f0f0f0" d="M14 7.304c0-2.463 0-4.078 0-7.304h-0.002c-7.731 0.001-13.998 6.269-13.998 14h7.304v-4.113l4.113 4.113h2.545c0.013-0.012 0.025-0.025 0.037-0.037 0-0.943 0-1.785 0-2.545l-4.113-4.113h4.113z"></path>
<path fill="#d80027" d="M7.083 1.826c-2.19 1.247-4.010 3.067-5.257 5.257v6.917h3.652v-8.522h8.522c0-1.152 0-2.249 0-3.652h-6.917z"></path>
<path fill="#d80027" d="M14 12.278l-4.974-4.974h-1.722c0-0 0 0 0 0l6.696 6.696c0 0 0-1.187 0-1.722z"></path>
<path fill="#f0f0f0" d="M8.444 16.435l0.768 1.607 1.735-0.401-0.777 1.602 1.395 1.106-1.737 0.392 0.005 1.781-1.389-1.114-1.389 1.114 0.005-1.781-1.737-0.392 1.395-1.106-0.777-1.602 1.735 0.401 0.768-1.607z"></path>
<path fill="#f0f0f0" d="M20.961 19.479l0.384 0.803 0.868-0.201-0.389 0.801 0.698 0.553-0.869 0.196 0.002 0.89-0.695-0.557-0.695 0.557 0.002-0.89-0.869-0.196 0.698-0.553-0.388-0.801 0.868 0.201 0.384-0.803z"></path>
<path fill="#f0f0f0" d="M17.387 10.957l0.384 0.803 0.868-0.201-0.389 0.801 0.698 0.553-0.869 0.196 0.002 0.89-0.695-0.557-0.695 0.557 0.002-0.89-0.869-0.196 0.698-0.553-0.388-0.801 0.868 0.201 0.384-0.803z"></path>
<path fill="#f0f0f0" d="M20.961 6.087l0.384 0.803 0.868-0.201-0.389 0.801 0.698 0.553-0.869 0.196 0.002 0.89-0.695-0.557-0.695 0.557 0.002-0.89-0.869-0.196 0.698-0.553-0.388-0.801 0.868 0.201 0.384-0.803z"></path>
<path fill="#f0f0f0" d="M24.083 9.74l0.384 0.803 0.868-0.201-0.388 0.801 0.698 0.553-0.869 0.196 0.002 0.89-0.695-0.557-0.695 0.557 0.002-0.89-0.869-0.196 0.698-0.553-0.389-0.801 0.868 0.201 0.384-0.803z"></path>
<path fill="#f0f0f0" d="M21.85 14l0.302 0.93h0.978l-0.791 0.575 0.302 0.93-0.791-0.575-0.791 0.575 0.302-0.93-0.791-0.575h0.978l0.302-0.93z"></path>
</svg>
