<!-- Generated by IcoMoon.io -->
<svg version="1.1" xmlns="http://www.w3.org/2000/svg" width="28" height="28" viewBox="0 0 28 28">
<title>brazil</title>
<path fill="#6da544" d="M14 28c7.732 0 14-6.268 14-14s-6.268-14-14-14c-7.732 0-14 6.268-14 14s6.268 14 14 14z"></path>
<path fill="#ffda44" d="M14 5.478l11.565 8.522-11.565 8.522-11.565-8.522 11.565-8.522z"></path>
<path fill="#f0f0f0" d="M14 18.87c2.689 0 4.87-2.18 4.87-4.87s-2.18-4.87-4.87-4.87c-2.689 0-4.869 2.18-4.869 4.87s2.18 4.87 4.869 4.87z"></path>
<path fill="#0052b4" d="M11.565 13.696c-0.847 0-1.664 0.129-2.433 0.368 0.034 2.66 2.2 4.806 4.868 4.806 1.65 0 3.107-0.821 3.988-2.076-1.507-1.886-3.826-3.097-6.422-3.097z"></path>
<path fill="#0052b4" d="M18.779 14.933c0.059-0.302 0.090-0.614 0.090-0.933 0-2.689-2.18-4.87-4.87-4.87-2.007 0-3.729 1.214-4.475 2.948 0.659-0.137 1.341-0.208 2.040-0.208 2.828 0 5.387 1.176 7.214 3.063z"></path>
</svg>
