<!-- Generated by IcoMoon.io -->
<svg version="1.1" xmlns="http://www.w3.org/2000/svg" width="28" height="28" viewBox="0 0 28 28">
<title>canary-islands</title>
<path fill="#338af3" d="M14 0c-1.713 0-3.353 0.308-4.87 0.871l-0.609 13.129 0.609 13.129c1.517 0.563 3.157 0.871 4.87 0.871s3.353-0.308 4.87-0.871l0.609-13.129-0.609-13.129c-1.517-0.563-3.157-0.871-4.87-0.871v0z"></path>
<path fill="#ffda44" d="M28 14c0-6.020-3.799-11.151-9.13-13.129v26.259c5.331-1.978 9.13-7.11 9.13-13.129z"></path>
<path fill="#f0f0f0" d="M9.13 27.129v-26.258c-5.331 1.978-9.13 7.11-9.13 13.129s3.799 11.151 9.13 13.129z"></path>
</svg>
