<!-- Generated by IcoMoon.io -->
<svg version="1.1" xmlns="http://www.w3.org/2000/svg" width="28" height="28" viewBox="0 0 28 28">
<title>canada</title>
<path fill="#f0f0f0" d="M14 28c7.732 0 14-6.268 14-14s-6.268-14-14-14c-7.732 0-14 6.268-14 14s6.268 14 14 14z"></path>
<path fill="#d80027" d="M28 14c0-5.55-3.23-10.346-7.913-12.611v25.222c4.683-2.264 7.913-7.060 7.913-12.611z"></path>
<path fill="#d80027" d="M0 14c0 5.55 3.23 10.346 7.913 12.611v-25.222c-4.683 2.264-7.913 7.060-7.913 12.611z"></path>
<path fill="#d80027" d="M16.435 15.826l2.435-1.217-1.217-0.609v-1.217l-2.435 1.217 1.217-2.435h-1.217l-1.217-1.826-1.217 1.826h-1.217l1.217 2.435-2.435-1.217v1.217l-1.217 0.609 2.435 1.217-0.609 1.217h2.435v1.826h1.217v-1.826h2.435l-0.609-1.217z"></path>
</svg>
