<!-- Generated by IcoMoon.io -->
<svg version="1.1" xmlns="http://www.w3.org/2000/svg" width="28" height="28" viewBox="0 0 28 28">
<title>greece</title>
<path fill="#f0f0f0" d="M14 28c7.732 0 14-6.268 14-14s-6.268-14-14-14c-7.732 0-14 6.268-14 14s6.268 14 14 14z"></path>
<path fill="#338af3" d="M14 10.348h13.518c-0.351-1.302-0.885-2.53-1.573-3.652h-11.945v3.652z"></path>
<path fill="#338af3" d="M5.285 24.956h17.43c1.278-1.018 2.373-2.254 3.23-3.652h-23.89c0.857 1.398 1.953 2.635 3.23 3.652z"></path>
<path fill="#338af3" d="M4.869 3.387c-1.101 0.948-2.052 2.064-2.815 3.308h2.815v-3.308z"></path>
<path fill="#338af3" d="M14 14c0-1.426 0-2.619 0-3.652h-5.478v3.652h-3.652v-3.652h-4.387c-0.314 1.165-0.482 2.389-0.482 3.652s0.168 2.488 0.482 3.652h27.036c0.314-1.164 0.482-2.389 0.482-3.652h-14z"></path>
<path fill="#338af3" d="M14 0c-1.944 0-3.796 0.397-5.478 1.113v5.583h5.478c0-1.275 0-2.359 0-3.652h8.715c-2.392-1.905-5.42-3.043-8.715-3.043z"></path>
</svg>
