<!-- Generated by IcoMoon.io -->
<svg version="1.1" xmlns="http://www.w3.org/2000/svg" width="28" height="28" viewBox="0 0 28 28">
<title>hong-kong</title>
<path fill="#d80027" d="M14 28c7.732 0 14-6.268 14-14s-6.268-14-14-14c-7.732 0-14 6.268-14 14s6.268 14 14 14z"></path>
<path fill="#f0f0f0" d="M15.445 10.591c-0.318 1.323-0.884 1.071-1.161 2.225-1.634-0.393-2.641-2.036-2.248-3.671s2.036-2.641 3.671-2.248c-0.555 2.308 0.023 2.51-0.262 3.693z"></path>
<path fill="#f0f0f0" d="M11.205 11.572c1.16 0.711 0.746 1.171 1.757 1.792-0.879 1.433-2.753 1.882-4.186 1.003s-1.882-2.753-1.004-4.185c2.024 1.241 2.394 0.754 3.432 1.39z"></path>
<path fill="#f0f0f0" d="M10.827 15.908c1.035-0.884 1.344-0.347 2.247-1.118 1.091 1.278 0.94 3.199-0.339 4.291s-3.2 0.939-4.291-0.339c1.805-1.541 1.456-2.044 2.383-2.834z"></path>
<path fill="#f0f0f0" d="M14.834 17.608c-0.521-1.258 0.085-1.386-0.369-2.482 1.553-0.643 3.333 0.095 3.976 1.648s-0.095 3.333-1.648 3.976c-0.908-2.193-1.493-2.017-1.959-3.142z"></path>
<path fill="#f0f0f0" d="M17.689 14.321c-1.357 0.107-1.292-0.509-2.475-0.416-0.131-1.676 1.121-3.141 2.796-3.272s3.141 1.121 3.272 2.796c-2.367 0.186-2.38 0.797-3.593 0.892z"></path>
</svg>
