<!-- Generated by IcoMoon.io -->
<svg version="1.1" xmlns="http://www.w3.org/2000/svg" width="28" height="28" viewBox="0 0 28 28">
<title>macao</title>
<path fill="#496e2d" d="M14 28c7.732 0 14-6.268 14-14s-6.268-14-14-14c-7.732 0-14 6.268-14 14s6.268 14 14 14z"></path>
<path fill="#f0f0f0" d="M16.435 13.416c-0.344 0-0.67 0.068-0.973 0.178 0.166-0.37 0.277-0.782 0.277-1.221 0-1.739-1.739-3.043-1.739-3.043s-1.739 1.304-1.739 3.043c0 0.439 0.111 0.851 0.277 1.221-0.303-0.109-0.629-0.178-0.973-0.178-1.739 0-3.043 1.739-3.043 1.739s1.304 1.739 3.043 1.739c1.020 0 1.889-0.598 2.435-1.092 0.546 0.495 1.415 1.092 2.435 1.092 1.739 0 3.043-1.739 3.043-1.739s-1.305-1.739-3.044-1.739z"></path>
<path fill="#ffda44" d="M14 5.478l0.359 1.106h1.163l-0.94 0.683 0.359 1.106-0.94-0.683-0.94 0.683 0.359-1.106-0.94-0.683h1.162l0.359-1.106z"></path>
<path fill="#ffda44" d="M9.579 7.411l0.691 0.622 0.805-0.465-0.378 0.85 0.691 0.622-0.925-0.097-0.378 0.85-0.193-0.91-0.925-0.097 0.805-0.465-0.193-0.91z"></path>
<path fill="#ffda44" d="M6.343 10.647l0.91 0.193 0.465-0.805 0.097 0.925 0.91 0.193-0.85 0.378 0.097 0.925-0.622-0.691-0.85 0.378 0.465-0.805-0.622-0.691z"></path>
<path fill="#ffda44" d="M18.421 7.411l-0.691 0.622-0.805-0.465 0.378 0.85-0.691 0.622 0.925-0.097 0.378 0.85 0.194-0.91 0.925-0.097-0.805-0.465 0.193-0.91z"></path>
<path fill="#ffda44" d="M21.657 10.647l-0.91 0.193-0.465-0.805-0.097 0.925-0.91 0.193 0.85 0.378-0.097 0.925 0.622-0.691 0.85 0.378-0.465-0.805 0.622-0.691z"></path>
<path fill="#f0f0f0" d="M14 21.764c1.381 0 2.655-0.461 3.676-1.236h-7.352c1.021 0.775 2.295 1.236 3.676 1.236z"></path>
<path fill="#f0f0f0" d="M8.42 18.112c0.193 0.442 0.438 0.856 0.726 1.236h9.708c0.288-0.38 0.533-0.794 0.726-1.236h-11.16z"></path>
</svg>
