<!-- Generated by IcoMoon.io -->
<svg version="1.1" xmlns="http://www.w3.org/2000/svg" width="28" height="28" viewBox="0 0 28 28">
<title>malaysia</title>
<path fill="#f0f0f0" d="M14 28c7.732 0 14-6.268 14-14s-6.268-14-14-14c-7.732 0-14 6.268-14 14s6.268 14 14 14z"></path>
<path fill="#d80027" d="M13.391 14h14.609c0-1.264-0.168-2.488-0.482-3.652h-14.126v3.652z"></path>
<path fill="#d80027" d="M13.391 6.695h12.554c-0.857-1.398-1.953-2.635-3.23-3.652h-9.323v3.652z"></path>
<path fill="#d80027" d="M14 27.999c3.295 0 6.323-1.139 8.715-3.043h-17.43c2.392 1.905 5.42 3.043 8.715 3.043z"></path>
<path fill="#d80027" d="M2.055 21.304h23.89c0.688-1.123 1.221-2.35 1.572-3.652h-27.035c0.351 1.302 0.885 2.53 1.573 3.652z"></path>
<path fill="#0052b4" d="M14 14c0-7.732 0-8.643 0-14-7.732 0-14 6.268-14 14h14z"></path>
<path fill="#ffda44" d="M9.31 11.984c-1.912 0-3.462-1.55-3.462-3.462s1.55-3.462 3.462-3.462c0.596 0 1.157 0.151 1.647 0.416-0.768-0.751-1.819-1.215-2.978-1.215-2.353 0-4.261 1.908-4.261 4.261s1.908 4.261 4.261 4.261c1.159 0 2.21-0.464 2.978-1.215-0.49 0.265-1.051 0.416-1.647 0.416z"></path>
<path fill="#ffda44" d="M10.285 6.087l0.615 1.285 1.388-0.321-0.622 1.282 1.116 0.885-1.39 0.313 0.004 1.425-1.111-0.891-1.111 0.891 0.004-1.425-1.39-0.313 1.116-0.885-0.622-1.282 1.388 0.321 0.615-1.285z"></path>
</svg>
