<!-- Generated by IcoMoon.io -->
<svg version="1.1" xmlns="http://www.w3.org/2000/svg" width="28" height="28" viewBox="0 0 28 28">
<title>mexico</title>
<path fill="#f0f0f0" d="M14 28c7.732 0 14-6.268 14-14s-6.268-14-14-14c-7.732 0-14 6.268-14 14s6.268 14 14 14z"></path>
<path fill="#d80027" d="M28 14c0-5.55-3.23-10.346-7.913-12.611v25.222c4.683-2.264 7.913-7.060 7.913-12.611z"></path>
<path fill="#6da544" d="M0 14c0 5.55 3.23 10.346 7.913 12.611v-25.222c-4.683 2.264-7.913 7.060-7.913 12.611z"></path>
<path fill="#6da544" d="M10.348 13.999c0 2.017 1.635 3.652 3.652 3.652s3.652-1.635 3.652-3.652v-1.217h-7.304v1.217z"></path>
<path fill="#ff9811" d="M18.87 11.565h-3.652c0-0.672-0.545-1.217-1.217-1.217s-1.217 0.545-1.217 1.217h-3.652c0 0.672 0.586 1.217 1.258 1.217h-0.041c0 0.672 0.545 1.217 1.217 1.217 0 0.672 0.545 1.217 1.217 1.217h2.435c0.672 0 1.217-0.545 1.217-1.217 0.672 0 1.217-0.545 1.217-1.217h-0.041c0.672 0 1.258-0.545 1.258-1.217z"></path>
</svg>
