<!-- Generated by IcoMoon.io -->
<svg version="1.1" xmlns="http://www.w3.org/2000/svg" width="28" height="28" viewBox="0 0 28 28">
<title>russia</title>
<path fill="#f0f0f0" d="M14 28c7.732 0 14-6.268 14-14s-6.268-14-14-14c-7.732 0-14 6.268-14 14s6.268 14 14 14z"></path>
<path fill="#0052b4" d="M27.129 18.87c0.563-1.517 0.871-3.157 0.871-4.87s-0.308-3.353-0.871-4.87h-26.258c-0.563 1.517-0.871 3.157-0.871 4.87s0.308 3.353 0.871 4.87l13.129 1.217 13.129-1.217z"></path>
<path fill="#d80027" d="M14 28c6.020 0 11.151-3.799 13.129-9.13h-26.258c1.978 5.331 7.11 9.13 13.129 9.13z"></path>
</svg>
