<!-- Generated by IcoMoon.io -->
<svg version="1.1" xmlns="http://www.w3.org/2000/svg" width="28" height="28" viewBox="0 0 28 28">
<title>spain</title>
<path fill="#ffda44" d="M0 14c0 1.712 0.308 3.353 0.871 4.87l13.129 1.217 13.129-1.217c0.563-1.517 0.871-3.157 0.871-4.87s-0.308-3.353-0.871-4.87l-13.129-1.217-13.129 1.217c-0.563 1.517-0.871 3.157-0.871 4.87v0z"></path>
<path fill="#d80027" d="M27.129 9.13c-1.978-5.331-7.11-9.13-13.129-9.13s-11.151 3.799-13.129 9.13h26.258z"></path>
<path fill="#d80027" d="M0.871 18.869c1.978 5.331 7.11 9.13 13.129 9.13s11.151-3.799 13.129-9.13h-26.258z"></path>
</svg>
