<svg width="24" height="24" viewBox="0 0 24 24" fill="none" xmlns="http://www.w3.org/2000/svg">
<g clip-path="url(#clip0_4178_4729)">
<path d="M12 24C18.6274 24 24 18.6274 24 12C24 5.37258 18.6274 0 12 0C5.37258 0 0 5.37258 0 12C0 18.6274 5.37258 24 12 24Z" fill="#F0F0F0"/>
<path d="M2.48063 4.69434C1.53802 5.92073 0.827251 7.33424 0.413391 8.86982H6.65611L2.48063 4.69434Z" fill="#0052B4"/>
<path d="M23.5866 8.86977C23.1727 7.33424 22.4619 5.92073 21.5194 4.69434L17.344 8.86977H23.5866Z" fill="#0052B4"/>
<path d="M0.413391 15.1299C0.827297 16.6654 1.53806 18.0789 2.48063 19.3053L6.65597 15.1299H0.413391Z" fill="#0052B4"/>
<path d="M19.3058 2.48037C18.0794 1.53776 16.666 0.826992 15.1304 0.413086V6.65576L19.3058 2.48037Z" fill="#0052B4"/>
<path d="M4.69415 21.5191C5.92054 22.4617 7.33406 23.1725 8.86959 23.5864V17.3438L4.69415 21.5191Z" fill="#0052B4"/>
<path d="M8.86954 0.413086C7.33401 0.826992 5.9205 1.53776 4.69415 2.48032L8.86954 6.65571V0.413086Z" fill="#0052B4"/>
<path d="M15.1304 23.5864C16.666 23.1725 18.0795 22.4617 19.3058 21.5191L15.1304 17.3438V23.5864Z" fill="#0052B4"/>
<path d="M17.344 15.1299L21.5194 19.3053C22.4619 18.079 23.1727 16.6654 23.5866 15.1299H17.344Z" fill="#0052B4"/>
<path d="M23.8984 10.4348H13.5653H13.5653V0.101578C13.0529 0.034875 12.5305 0 12 0C11.4694 0 10.9471 0.034875 10.4348 0.101578V10.4347V10.4347H0.101578C0.034875 10.9471 0 11.4695 0 12C0 12.5306 0.034875 13.0529 0.101578 13.5652H10.4347H10.4347V23.8984C10.9471 23.9651 11.4694 24 12 24C12.5305 24 13.0529 23.9652 13.5652 23.8984V13.5653V13.5653H23.8984C23.9651 13.0529 24 12.5306 24 12C24 11.4695 23.9651 10.9471 23.8984 10.4348Z" fill="#D80027"/>
<path d="M15.1304 15.1309L20.4853 20.4857C20.7315 20.2395 20.9665 19.9821 21.1906 19.7153L16.6062 15.1309H15.1304V15.1309Z" fill="#D80027"/>
<path d="M8.86955 15.1309H8.86946L3.51469 20.4856C3.76088 20.7319 4.01827 20.9668 4.28508 21.191L8.86955 16.6064V15.1309Z" fill="#D80027"/>
<path d="M8.86954 8.8696V8.86951L3.51473 3.51465C3.26845 3.76084 3.03351 4.01823 2.80936 4.28504L7.39387 8.86955H8.86954V8.8696Z" fill="#D80027"/>
<path d="M15.1304 8.86981L20.4853 3.5149C20.2391 3.26862 19.9817 3.03368 19.7149 2.80957L15.1304 7.39409V8.86981Z" fill="#D80027"/>
</g>
<defs>
<clipPath id="clip0_4178_4729">
<rect width="24" height="24" fill="white"/>
</clipPath>
</defs>
</svg>
