<!-- Generated by IcoMoon.io -->
<svg version="1.1" xmlns="http://www.w3.org/2000/svg" width="28" height="28" viewBox="0 0 28 28">
<title>united-states</title>
<path fill="#f0f0f0" d="M14 28c7.732 0 14-6.268 14-14s-6.268-14-14-14c-7.732 0-14 6.268-14 14s6.268 14 14 14z"></path>
<path fill="#d80027" d="M13.391 14h14.609c0-1.264-0.168-2.488-0.482-3.652h-14.126v3.652z"></path>
<path fill="#d80027" d="M13.391 6.695h12.554c-0.857-1.398-1.953-2.635-3.23-3.652h-9.323v3.652z"></path>
<path fill="#d80027" d="M14 27.999c3.295 0 6.323-1.139 8.715-3.043h-17.43c2.391 1.905 5.42 3.043 8.715 3.043z"></path>
<path fill="#d80027" d="M2.055 21.304h23.89c0.688-1.123 1.222-2.35 1.573-3.652h-27.035c0.351 1.302 0.885 2.529 1.573 3.652z"></path>
<path fill="#0052b4" d="M6.485 2.186h1.276l-1.187 0.862 0.453 1.395-1.187-0.862-1.187 0.862 0.392-1.205c-1.045 0.87-1.961 1.89-2.715 3.026h0.409l-0.755 0.549c-0.118 0.196-0.231 0.396-0.339 0.598l0.361 1.11-0.673-0.489c-0.167 0.354-0.32 0.717-0.458 1.087l0.397 1.223h1.467l-1.187 0.862 0.453 1.395-1.187-0.862-0.711 0.516c-0.071 0.572-0.108 1.154-0.108 1.746h14c0-7.732 0-8.643 0-14-2.766 0-5.344 0.802-7.515 2.186zM7.027 12.6l-1.187-0.862-1.187 0.862 0.453-1.395-1.187-0.862h1.467l0.453-1.395 0.453 1.395h1.467l-1.187 0.862 0.453 1.395zM6.574 7.127l0.453 1.395-1.187-0.862-1.187 0.862 0.453-1.395-1.187-0.862h1.467l0.453-1.395 0.453 1.395h1.467l-1.187 0.862zM12.049 12.6l-1.187-0.862-1.187 0.862 0.453-1.395-1.187-0.862h1.467l0.453-1.395 0.453 1.395h1.467l-1.187 0.862 0.453 1.395zM11.596 7.127l0.453 1.395-1.187-0.862-1.187 0.862 0.453-1.395-1.187-0.862h1.467l0.453-1.395 0.453 1.395h1.467l-1.187 0.862zM11.596 3.048l0.453 1.395-1.187-0.862-1.187 0.862 0.453-1.395-1.187-0.862h1.467l0.453-1.395 0.453 1.395h1.467l-1.187 0.862z"></path>
</svg>
