<!-- Generated by IcoMoon.io -->
<svg version="1.1" xmlns="http://www.w3.org/2000/svg" width="28" height="28" viewBox="0 0 28 28">
<title>united-arab-emirates</title>
<path fill="#f0f0f0" d="M14 28c7.732 0 14-6.268 14-14s-6.268-14-14-14c-7.732 0-14 6.268-14 14s6.268 14 14 14z"></path>
<path fill="#000" d="M7.913 18.869l1.217 8.26c1.517 0.563 3.157 0.871 4.87 0.871 6.019 0 11.151-3.799 13.129-9.13h-19.216z"></path>
<path fill="#6da544" d="M7.913 9.13l1.217-8.26c1.517-0.563 3.157-0.871 4.87-0.871 6.019 0 11.151 3.799 13.129 9.13h-19.216z"></path>
<path fill="#a2001d" d="M0 14c0 6.020 3.799 11.151 9.13 13.129v-26.258c-5.331 1.978-9.13 7.11-9.13 13.129z"></path>
</svg>
