<svg width="131" height="30" viewBox="0 0 131 30" fill="none" xmlns="http://www.w3.org/2000/svg">
<g clip-path="url(#clip0_17541_11537)">
<path d="M100.046 6.94442V3.29256H96.7707V6.94442H90.2207V11.9926C90.2207 16.7185 91.9638 20.424 98.4082 20.424C104.853 20.424 106.596 16.6648 106.596 11.9926V6.94442H100.046ZM103.374 12.2074C103.374 15.2148 102.528 17.6315 98.461 17.6315C94.3937 17.6315 93.4957 15.2685 93.4957 12.2074V9.73701H96.8235V13.3889H100.099V9.73701H103.426L103.374 12.2074Z" fill="#252525"/>
<path d="M11.304 4.52781H3.80318V8.44818H10.8286V12.0463H3.80318V16.3963H11.5153V20.1556H-0.26416V0.929657H11.304V4.52781Z" fill="#252525"/>
<path d="M31.7992 20.1556V12.4759C31.9049 10.7037 31.0069 9.68333 29.6863 9.68333C28.3657 9.68333 27.3093 10.7037 27.3093 12.4759V20.1556H23.6117V12.5296C23.6117 10.7574 22.7665 9.68333 21.3932 9.73704C20.0198 9.79074 18.8049 10.8111 18.8049 12.637V20.1556H15.0016V10.9722C15.0016 9.68333 14.896 9.30741 13.7339 9.36111V7.05185C15.4242 6.56852 18.4351 6.13889 18.4351 8.77037C19.1218 7.26667 21.0234 6.67593 22.6081 6.67593C24.1928 6.67593 25.9359 7.42778 26.5698 9.03889C27.3621 7.42778 29.2637 6.67593 31.0597 6.67593C34.7573 6.67593 35.6024 9.30741 35.5496 12.5296V20.1556H31.7992Z" fill="#252525"/>
<path d="M46.5892 6.67587C50.3924 6.67587 52.4525 9.68328 52.4525 13.4425C52.4525 17.2018 49.7586 20.424 46.3251 20.424C45.2457 20.4539 44.1756 20.2142 43.2086 19.7259V26.9222H39.4053V11.4555C39.4053 10.1666 39.5638 9.41476 38.1904 9.52217V6.94439C39.9336 6.56846 42.4691 6.51476 42.4691 9.03884C43.2086 7.37402 44.8989 6.62217 46.5892 6.62217V6.67587ZM43.1029 16.5574C43.8414 16.9897 44.6806 17.2123 45.5328 17.2018C47.3287 17.2018 48.5965 15.7518 48.5965 13.4425C48.5965 11.1333 47.6985 10.0592 45.7441 10.0592C43.7896 10.0592 43.0501 11.4018 43.0501 12.9592L43.1029 16.5574Z" fill="#252525"/>
<path d="M61.327 20.4241C57.8935 20.4241 54.4072 18.1148 54.4072 13.4963C54.4072 8.87778 57.7879 6.67593 61.2213 6.67593C64.6548 6.67593 68.1939 8.82407 68.1939 13.4963C68.1939 18.1685 64.7605 20.4241 61.327 20.4241ZM61.2213 17.0944C62.806 17.0944 64.3907 15.913 64.3907 13.4963C64.3907 11.0796 62.8588 10.0593 61.2742 10.0593C59.6895 10.0593 58.1048 11.1333 58.1048 13.4963C58.1048 15.8593 59.6367 17.0944 61.2213 17.0944Z" fill="#252525"/>
<path d="M78.6529 6.6759C79.6542 6.63666 80.6397 6.93913 81.4525 7.53516L80.6073 10.7574C79.8907 10.2685 79.0397 10.024 78.1775 10.0592C77.7691 10.0359 77.3605 10.1005 76.9784 10.2488C76.5963 10.397 76.2493 10.6257 75.9601 10.9197C75.6709 11.2137 75.446 11.5665 75.3002 11.955C75.1543 12.3435 75.0908 12.7589 75.1138 13.1741V20.1555H71.4162V10.9722C71.4162 9.89813 71.3105 9.14628 70.1484 9.36109V6.99813C72.05 6.5685 74.6912 6.5685 74.9025 8.93146C75.4307 7.42776 77.0682 6.6759 78.7057 6.6759" fill="#252525"/>
<path d="M87.5269 2.86299C87.5269 5.70928 83.0898 5.70928 83.0898 2.86299C83.0898 0.0166897 87.5269 0.0166897 87.5269 2.86299ZM87.21 20.1556H83.4068V6.99817H87.21V20.1556Z" fill="#252525"/>
<path d="M127.197 20.1556V12.4759C127.302 10.7037 126.404 9.68333 125.084 9.68333C123.763 9.68333 122.707 10.7037 122.707 12.4759V20.1556H119.009V12.5296C119.009 10.7574 118.164 9.68333 116.791 9.73704C115.417 9.79074 114.202 10.8111 114.202 12.637V20.1556H110.399V10.9722C110.399 9.68333 110.293 9.30741 109.131 9.36111V7.05185C110.822 6.56852 113.833 6.13889 113.833 8.77037C114.519 7.26667 116.421 6.67593 118.006 6.67593C119.59 6.67593 121.333 7.42778 121.967 9.03889C122.76 7.42778 124.661 6.67593 126.457 6.67593C130.155 6.67593 131 9.30741 130.947 12.5296V20.1556H127.197Z" fill="#252525"/>
</g>
<defs>
<clipPath id="clip0_17541_11537">
<rect width="131" height="29" fill="white" transform="translate(0 0.5)"/>
</clipPath>
</defs>
</svg>
